Coordinates
version=1
nRows=17
nColumns=24
inDegrees=yes

Units are S.I. units (second, meters, Newtons, ...)
Angles are in degrees.

endheader
time	pelvis_tilt	pelvis_list	pelvis_rotation	pelvis_tx	pelvis_ty	pelvis_tz	hip_flexion_r	hip_adduction_r	hip_rotation_r	knee_angle_r	ankle_angle_r	subtalar_angle_r	mtp_angle_r	hip_flexion_l	hip_adduction_l	hip_rotation_l	knee_angle_l	ankle_angle_l	subtalar_angle_l	mtp_angle_l	lumbar_extension	lumbar_bending	lumbar_rotation
      0.48800000	     -4.53432458	      0.64989041	      5.23355540	     -0.80383706	      1.01304210	      0.32153322	     24.94600358	     -0.08543896	     -8.22357145	      1.72719547	      0.40790642	     -1.58380757	      6.87511079	     -6.63248031	      4.71767887	      7.08896109	    -13.11699580	     13.88670825	     -6.24325861	     -4.12798323	     -2.97479786	     -4.07241980	     -4.48256656
      0.49216667	     -4.55767058	      0.56529634	      5.27612035	     -0.79803273	      1.01233498	      0.32166832	     25.03486638	      0.05957279	     -8.04958344	      1.36139199	      0.30983730	     -1.77737861	      6.90445537	     -6.62939048	      4.61654225	      7.07972848	    -13.77519733	     13.98938899	     -6.17356669	     -4.11044597	     -2.89996053	     -3.94676306	     -4.46372904
      0.49633333	     -4.57197879	      0.46883549	      5.30831668	     -0.79219246	      1.01165255	      0.32180701	     25.12004296	      0.21861520	     -7.82860687	      0.92551480	      0.12291628	     -2.10826656	      6.96198580	     -6.60851022	      4.49726819	      6.97936211	    -14.48949213	     14.11635571	     -5.98966679	     -4.06826095	     -2.82955916	     -3.80455015	     -4.43557781
      0.50050000	     -4.55746541	      0.35965159	      5.33847417	     -0.78629921	      1.01104099	      0.32194252	     25.17313797	      0.39271786	     -7.59299123	      0.43770084	     -0.12490762	     -2.51121434	      7.04707201	     -6.59649336	      4.36262839	      6.86926647	    -15.24772910	     14.20873832	     -5.80482850	     -3.99896364	     -2.78643308	     -3.64447827	     -4.40795902
      0.50466667	     -4.53282560	      0.26432570	      5.36415270	     -0.78039768	      1.01047143	      0.32208593	     25.22335483	      0.55376691	     -7.32686477	     -0.11273815	     -0.44187186	     -3.01464719	      7.18824456	     -6.57115968	      4.24133298	      6.72609846	    -16.05502991	     14.26696540	     -5.59964637	     -3.87662424	     -2.75519835	     -3.52033204	     -4.38083052
      0.50883333	     -4.49692363	      0.12316672	      5.39395863	     -0.77440665	      1.00996065	      0.32218865	     25.25118914	      0.75711441	     -7.07763513	     -0.68738599	     -0.79008374	     -3.51260495	      7.31111236	     -6.54208664	      4.07432870	      6.61292641	    -16.88997099	     14.30200518	     -5.44979335	     -3.75715816	     -2.70380947	     -3.27916674	     -4.35966941
      0.51300000	     -4.48988793	      0.00912917	      5.41580823	     -0.76844046	      1.00941438	      0.32232523	     25.32798492	      0.93312241	     -6.77686337	     -1.33254173	     -1.18454830	     -4.09228055	      7.44683383	     -6.45220506	      3.93669718	      6.46229433	    -17.78009346	     14.28349374	     -5.26996555	     -3.61238122	     -2.64740934	     -3.11777205	     -4.33807701
      0.51716667	     -4.41210982	     -0.13067547	      5.44243646	     -0.76240705	      1.00902266	      0.32245355	     25.30864909	      1.14203373	     -6.47834749	     -1.96379241	     -1.66654229	     -4.75387788	      7.60168050	     -6.41782423	      3.75851828	      6.27991371	    -18.70422689	     14.23415305	     -5.06115969	     -3.42560556	     -2.65696392	     -2.89829312	     -4.31172912
      0.52133333	     -4.37855226	     -0.24536613	      5.46420526	     -0.75638388	      1.00857554	      0.32259675	     25.35456023	      1.32069000	     -6.16346671	     -2.65960736	     -2.14414860	     -5.42371204	      7.76462439	     -6.30924635	      3.61294111	      6.09858919	    -19.68258457	     14.13461628	     -4.87717458	     -3.20658650	     -2.61314588	     -2.73075425	     -4.29104921
      0.52550000	     -4.30163780	     -0.38737558	      5.49175136	     -0.75029671	      1.00825810	      0.32273750	     25.33786738	      1.53042265	     -5.86947033	     -3.34249472	     -2.67919164	     -6.10855684	      7.92475925	     -6.22812153	      3.42523621	      5.88813755	    -20.67988232	     13.97086257	     -4.67095250	     -2.95880042	     -2.61361900	     -2.50599182	     -4.26893671
      0.52966667	     -4.20979963	     -0.49852939	      5.51724793	     -0.74423835	      1.00797460	      0.32292506	     25.31197186	      1.71553864	     -5.53352838	     -4.05556967	     -3.24024083	     -6.91774761	      8.15074253	     -6.13429716	      3.26237066	      5.65523183	    -21.73530650	     13.85143831	     -4.42460093	     -2.55758352	     -2.64573585	     -2.36393227	     -4.24014296
      0.53383333	     -4.09787007	     -0.64228560	      5.54271265	     -0.73810109	      1.00777816	      0.32308920	     25.25775879	      1.92821807	     -5.27437220	     -4.77037374	     -3.80984143	     -7.57932944	     10.21357144	     -6.04827019	      3.05583066	      5.39804815	    -22.78666090	     13.43045974	     -4.30420112	      1.59318345	     -2.68137405	     -2.13001820	     -4.20315260
      0.53800000	     -4.04279752	     -0.77028366	      5.57373708	     -0.73198283	      1.00753096	      0.32328116	     25.27295700	      2.11932512	     -5.00077943	     -5.52004677	     -4.33168936	     -8.24608314	     10.19700999	     -5.86164706	      2.86468976	      5.12567361	    -23.92107200	     13.11957557	     -4.07674335	      1.67000096	     -2.64777780	     -1.94402303	     -4.20313446
      0.54216667	     -3.93829777	     -0.90540356	      5.59918496	     -0.72582905	      1.00740991	      0.32350603	     25.21966318	      2.32796690	     -4.71355691	     -6.24915726	     -4.85691243	     -8.93523310	     10.17928793	     -5.71087549	      2.64802462	      4.81164575	    -25.06572131	     12.72170219	     -3.83561432	      1.82561479	     -2.67207242	     -1.73991587	     -4.17467439
      0.54633333	     -3.84859529	     -1.03649614	      5.62612445	     -0.71966863	      1.00730678	      0.32375056	     25.18460878	      2.52949726	     -4.44688780	     -6.99547138	     -5.33566853	     -9.57173112	     10.15733463	     -5.51725640	      2.42758671	      4.48181033	    -26.24905065	     12.26756132	     -3.59378583	      2.04783954	     -2.67737861	     -1.54445857	     -4.14981625
      0.55050000	     -3.71788799	     -1.18270292	      5.65540550	     -0.71348500	      1.00732268	      0.32401966	     25.09158628	      2.75193259	     -4.19304709	     -7.72249752	     -5.79176460	    -10.20502429	     10.12276455	     -5.34194187	      2.17188708	      4.12051004	    -27.46436902	     11.71128893	     -3.34807324	      2.37419588	     -2.73002772	     -1.32960081	     -4.11858885
      0.55466667	     -3.57995197	     -1.30943507	      5.68689114	     -0.70730439	      1.00739234	      0.32430721	     24.99364996	      2.95160588	     -3.97654402	     -8.47196569	     -6.12961404	    -10.71941659	      9.71270005	     -5.15891329	      1.92789446	      3.76500829	    -28.67399255	     10.92023421	     -3.22500943	      6.68239673	     -2.80011317	     -1.14718863	     -4.08561567
